<mxfile host="app.diagrams.net" agent="Mozilla/5.0 (Windows NT 10.0; Win64; x64) AppleWebKit/537.36 (KHTML, like Gecko) Chrome/127.0.0.0 Safari/537.36" version="24.7.6">
  <diagram name="Page-1" id="yNYbuMme80xcPHQipdmm">
    <mxGraphModel grid="1" page="1" gridSize="10" guides="1" tooltips="1" connect="1" arrows="1" fold="1" pageScale="1" pageWidth="827" pageHeight="1169" math="0" shadow="0">
      <root>
        <mxCell id="0" />
        <mxCell id="1" parent="0" />
        <mxCell id="DtsNi0ToPmhLv28oZADu-54" style="edgeStyle=orthogonalEdgeStyle;rounded=0;orthogonalLoop=1;jettySize=auto;html=1;" edge="1" parent="1" source="hwvqLjOASp_te0Ma1rI8-5" target="hwvqLjOASp_te0Ma1rI8-6">
          <mxGeometry relative="1" as="geometry" />
        </mxCell>
        <mxCell id="hwvqLjOASp_te0Ma1rI8-5" value="" style="strokeWidth=2;html=1;shape=mxgraph.flowchart.terminator;whiteSpace=wrap;" vertex="1" parent="1">
          <mxGeometry x="857" y="320" width="100" height="60" as="geometry" />
        </mxCell>
        <mxCell id="DtsNi0ToPmhLv28oZADu-55" style="edgeStyle=orthogonalEdgeStyle;rounded=0;orthogonalLoop=1;jettySize=auto;html=1;" edge="1" parent="1" source="hwvqLjOASp_te0Ma1rI8-6" target="hwvqLjOASp_te0Ma1rI8-8">
          <mxGeometry relative="1" as="geometry" />
        </mxCell>
        <mxCell id="DtsNi0ToPmhLv28oZADu-61" style="edgeStyle=orthogonalEdgeStyle;rounded=0;orthogonalLoop=1;jettySize=auto;html=1;" edge="1" parent="1" source="hwvqLjOASp_te0Ma1rI8-6" target="hwvqLjOASp_te0Ma1rI8-5">
          <mxGeometry relative="1" as="geometry">
            <Array as="points">
              <mxPoint x="737" y="280" />
              <mxPoint x="907" y="280" />
            </Array>
          </mxGeometry>
        </mxCell>
        <mxCell id="hwvqLjOASp_te0Ma1rI8-6" value="Power on?" style="strokeWidth=2;html=1;shape=mxgraph.flowchart.decision;whiteSpace=wrap;" vertex="1" parent="1">
          <mxGeometry x="677" y="300" width="120" height="100" as="geometry" />
        </mxCell>
        <mxCell id="hwvqLjOASp_te0Ma1rI8-8" value="Start Arduino" style="rounded=0;whiteSpace=wrap;html=1;" vertex="1" parent="1">
          <mxGeometry x="530" y="267" width="120" height="60" as="geometry" />
        </mxCell>
        <mxCell id="DtsNi0ToPmhLv28oZADu-20" style="edgeStyle=orthogonalEdgeStyle;rounded=0;orthogonalLoop=1;jettySize=auto;html=1;entryX=0.5;entryY=0;entryDx=0;entryDy=0;" edge="1" parent="1" source="hwvqLjOASp_te0Ma1rI8-16">
          <mxGeometry relative="1" as="geometry">
            <mxPoint x="395" y="530" as="targetPoint" />
          </mxGeometry>
        </mxCell>
        <mxCell id="hwvqLjOASp_te0Ma1rI8-16" value="New UART msg?" style="strokeWidth=2;html=1;shape=mxgraph.flowchart.decision;whiteSpace=wrap;" vertex="1" parent="1">
          <mxGeometry x="330" y="360" width="140" height="100" as="geometry" />
        </mxCell>
        <mxCell id="hwvqLjOASp_te0Ma1rI8-45" value="" style="endArrow=classic;html=1;rounded=0;exitX=0;exitY=0.5;exitDx=0;exitDy=0;exitPerimeter=0;" edge="1" parent="1" source="hwvqLjOASp_te0Ma1rI8-16" target="hwvqLjOASp_te0Ma1rI8-47">
          <mxGeometry width="50" height="50" relative="1" as="geometry">
            <mxPoint x="580" y="440" as="sourcePoint" />
            <mxPoint x="550" y="410" as="targetPoint" />
          </mxGeometry>
        </mxCell>
        <mxCell id="hwvqLjOASp_te0Ma1rI8-46" value="Yes" style="text;html=1;align=center;verticalAlign=middle;whiteSpace=wrap;rounded=0;" vertex="1" parent="1">
          <mxGeometry x="260" y="370" width="60" height="30" as="geometry" />
        </mxCell>
        <mxCell id="DtsNi0ToPmhLv28oZADu-19" style="edgeStyle=orthogonalEdgeStyle;rounded=0;orthogonalLoop=1;jettySize=auto;html=1;entryX=0;entryY=0.5;entryDx=0;entryDy=0;" edge="1" parent="1" source="hwvqLjOASp_te0Ma1rI8-47">
          <mxGeometry relative="1" as="geometry">
            <mxPoint x="335" y="560" as="targetPoint" />
            <Array as="points">
              <mxPoint x="200" y="560" />
            </Array>
          </mxGeometry>
        </mxCell>
        <mxCell id="hwvqLjOASp_te0Ma1rI8-47" value="Set settings and save in EEPROM" style="rounded=0;whiteSpace=wrap;html=1;" vertex="1" parent="1">
          <mxGeometry x="110" y="380" width="120" height="60" as="geometry" />
        </mxCell>
        <mxCell id="DtsNi0ToPmhLv28oZADu-18" value="Sense water and set height of water level sensor&amp;nbsp;" style="rounded=0;whiteSpace=wrap;html=1;" vertex="1" parent="1">
          <mxGeometry x="150" y="242" width="180" height="110" as="geometry" />
        </mxCell>
        <mxCell id="DtsNi0ToPmhLv28oZADu-23" value="No" style="text;html=1;align=center;verticalAlign=middle;whiteSpace=wrap;rounded=0;" vertex="1" parent="1">
          <mxGeometry x="405" y="470" width="60" height="30" as="geometry" />
        </mxCell>
        <mxCell id="DtsNi0ToPmhLv28oZADu-24" style="edgeStyle=orthogonalEdgeStyle;rounded=0;orthogonalLoop=1;jettySize=auto;html=1;entryX=0.5;entryY=0;entryDx=0;entryDy=0;entryPerimeter=0;" edge="1" parent="1" source="DtsNi0ToPmhLv28oZADu-18" target="hwvqLjOASp_te0Ma1rI8-16">
          <mxGeometry relative="1" as="geometry" />
        </mxCell>
        <mxCell id="DtsNi0ToPmhLv28oZADu-28" style="edgeStyle=orthogonalEdgeStyle;rounded=0;orthogonalLoop=1;jettySize=auto;html=1;" edge="1" parent="1" source="DtsNi0ToPmhLv28oZADu-25">
          <mxGeometry relative="1" as="geometry">
            <mxPoint x="570" y="590" as="targetPoint" />
          </mxGeometry>
        </mxCell>
        <mxCell id="DtsNi0ToPmhLv28oZADu-36" style="edgeStyle=orthogonalEdgeStyle;rounded=0;orthogonalLoop=1;jettySize=auto;html=1;entryX=0.5;entryY=0;entryDx=0;entryDy=0;" edge="1" parent="1" source="DtsNi0ToPmhLv28oZADu-25" target="DtsNi0ToPmhLv28oZADu-26">
          <mxGeometry relative="1" as="geometry" />
        </mxCell>
        <mxCell id="DtsNi0ToPmhLv28oZADu-25" value="water level above threshold?" style="rhombus;whiteSpace=wrap;html=1;" vertex="1" parent="1">
          <mxGeometry x="320" y="530" width="135" height="120" as="geometry" />
        </mxCell>
        <mxCell id="DtsNi0ToPmhLv28oZADu-37" style="edgeStyle=orthogonalEdgeStyle;rounded=0;orthogonalLoop=1;jettySize=auto;html=1;entryX=0.5;entryY=0;entryDx=0;entryDy=0;" edge="1" parent="1" source="DtsNi0ToPmhLv28oZADu-26" target="DtsNi0ToPmhLv28oZADu-27">
          <mxGeometry relative="1" as="geometry" />
        </mxCell>
        <mxCell id="DtsNi0ToPmhLv28oZADu-26" value="temperature above&amp;nbsp;&lt;div&gt;target?&lt;/div&gt;" style="rhombus;whiteSpace=wrap;html=1;" vertex="1" parent="1">
          <mxGeometry x="315" y="680" width="145" height="140" as="geometry" />
        </mxCell>
        <mxCell id="DtsNi0ToPmhLv28oZADu-30" style="edgeStyle=orthogonalEdgeStyle;rounded=0;orthogonalLoop=1;jettySize=auto;html=1;entryX=-0.015;entryY=0.803;entryDx=0;entryDy=0;entryPerimeter=0;" edge="1" parent="1" source="DtsNi0ToPmhLv28oZADu-27" target="DtsNi0ToPmhLv28oZADu-31">
          <mxGeometry relative="1" as="geometry">
            <mxPoint x="575" y="1040" as="targetPoint" />
          </mxGeometry>
        </mxCell>
        <mxCell id="DtsNi0ToPmhLv28oZADu-27" value="photo sensor above&amp;nbsp;&lt;div&gt;target&lt;/div&gt;" style="rhombus;whiteSpace=wrap;html=1;" vertex="1" parent="1">
          <mxGeometry x="315" y="842.5" width="145" height="140" as="geometry" />
        </mxCell>
        <mxCell id="DtsNi0ToPmhLv28oZADu-31" value="Switch off Pump" style="rounded=0;whiteSpace=wrap;html=1;" vertex="1" parent="1">
          <mxGeometry x="590" y="500" width="110" height="510" as="geometry" />
        </mxCell>
        <mxCell id="DtsNi0ToPmhLv28oZADu-41" value="No" style="text;html=1;align=center;verticalAlign=middle;whiteSpace=wrap;rounded=0;" vertex="1" parent="1">
          <mxGeometry x="460" y="555" width="60" height="30" as="geometry" />
        </mxCell>
        <mxCell id="DtsNi0ToPmhLv28oZADu-43" value="No" style="text;html=1;align=center;verticalAlign=middle;whiteSpace=wrap;rounded=0;" vertex="1" parent="1">
          <mxGeometry x="465" y="880" width="60" height="30" as="geometry" />
        </mxCell>
        <mxCell id="DtsNi0ToPmhLv28oZADu-44" value="Yes" style="text;html=1;align=center;verticalAlign=middle;whiteSpace=wrap;rounded=0;" vertex="1" parent="1">
          <mxGeometry x="390" y="670" width="60" height="30" as="geometry" />
        </mxCell>
        <mxCell id="DtsNi0ToPmhLv28oZADu-45" value="Yes" style="text;html=1;align=center;verticalAlign=middle;whiteSpace=wrap;rounded=0;" vertex="1" parent="1">
          <mxGeometry x="405" y="910" width="60" height="30" as="geometry" />
        </mxCell>
        <mxCell id="DtsNi0ToPmhLv28oZADu-46" value="Yes" style="text;html=1;align=center;verticalAlign=middle;whiteSpace=wrap;rounded=0;" vertex="1" parent="1">
          <mxGeometry x="421.94" y="990.98" width="60" height="30" as="geometry" />
        </mxCell>
        <mxCell id="DtsNi0ToPmhLv28oZADu-50" style="edgeStyle=orthogonalEdgeStyle;rounded=0;orthogonalLoop=1;jettySize=auto;html=1;" edge="1" parent="1" source="DtsNi0ToPmhLv28oZADu-47" target="hwvqLjOASp_te0Ma1rI8-16">
          <mxGeometry relative="1" as="geometry">
            <Array as="points">
              <mxPoint x="800" y="410" />
            </Array>
          </mxGeometry>
        </mxCell>
        <mxCell id="DtsNi0ToPmhLv28oZADu-47" value="Switch on Pump" style="rounded=0;whiteSpace=wrap;html=1;" vertex="1" parent="1">
          <mxGeometry x="740" y="782.5" width="120" height="60" as="geometry" />
        </mxCell>
        <mxCell id="DtsNi0ToPmhLv28oZADu-56" value="Yes" style="text;html=1;align=center;verticalAlign=middle;resizable=0;points=[];autosize=1;strokeColor=none;fillColor=none;" vertex="1" parent="1">
          <mxGeometry x="655" y="310" width="40" height="30" as="geometry" />
        </mxCell>
        <mxCell id="DtsNi0ToPmhLv28oZADu-62" value="No" style="text;html=1;align=center;verticalAlign=middle;resizable=0;points=[];autosize=1;strokeColor=none;fillColor=none;" vertex="1" parent="1">
          <mxGeometry x="790" y="250" width="40" height="30" as="geometry" />
        </mxCell>
        <mxCell id="DtsNi0ToPmhLv28oZADu-42" value="No" style="text;html=1;align=center;verticalAlign=middle;whiteSpace=wrap;rounded=0;" vertex="1" parent="1">
          <mxGeometry x="480" y="710" width="60" height="30" as="geometry" />
        </mxCell>
        <mxCell id="DtsNi0ToPmhLv28oZADu-66" style="edgeStyle=orthogonalEdgeStyle;rounded=0;orthogonalLoop=1;jettySize=auto;html=1;entryX=-0.02;entryY=0.481;entryDx=0;entryDy=0;entryPerimeter=0;" edge="1" parent="1" source="DtsNi0ToPmhLv28oZADu-26" target="DtsNi0ToPmhLv28oZADu-31">
          <mxGeometry relative="1" as="geometry" />
        </mxCell>
        <mxCell id="DtsNi0ToPmhLv28oZADu-68" style="edgeStyle=orthogonalEdgeStyle;rounded=0;orthogonalLoop=1;jettySize=auto;html=1;entryX=0.413;entryY=0.986;entryDx=0;entryDy=0;entryPerimeter=0;" edge="1" parent="1" source="DtsNi0ToPmhLv28oZADu-27" target="DtsNi0ToPmhLv28oZADu-47">
          <mxGeometry relative="1" as="geometry">
            <Array as="points">
              <mxPoint x="388" y="1030" />
              <mxPoint x="790" y="1030" />
            </Array>
          </mxGeometry>
        </mxCell>
      </root>
    </mxGraphModel>
  </diagram>
</mxfile>
